<svg width="457" height="353" viewBox="0 0 457 353" fill="none" xmlns="http://www.w3.org/2000/svg">
<mask id="path-1-outside-1_37_263" maskUnits="userSpaceOnUse" x="-0.5" y="0" width="457" height="353" fill="black">
<rect fill="white" x="-0.5" width="457" height="353"/>
<path d="M10.716 1H23.132V81.64H70.108V93.544H10.716V1ZM82.789 66.536C82.789 61.2453 84.0263 56.4667 86.501 52.2C89.061 47.9333 92.5597 44.5627 96.997 42.088C101.434 39.6133 106.469 38.376 112.101 38.376C117.904 38.376 122.981 39.6133 127.333 42.088C131.685 44.5627 135.056 47.9333 137.445 52.2C139.834 56.4667 141.029 61.2453 141.029 66.536C141.029 71.8267 139.834 76.648 137.445 81C135.056 85.2667 131.642 88.6373 127.205 91.112C122.853 93.5867 117.776 94.824 111.973 94.824C106.341 94.824 101.306 93.672 96.869 91.368C92.517 88.9787 89.061 85.6933 86.501 81.512C84.0263 77.2453 82.789 72.2533 82.789 66.536ZM94.693 66.664C94.693 70.0773 95.461 73.192 96.997 76.008C98.533 78.7387 100.581 80.9147 103.141 82.536C105.786 84.1573 108.688 84.968 111.845 84.968C115.173 84.968 118.117 84.1573 120.677 82.536C123.322 80.9147 125.37 78.7387 126.821 76.008C128.272 73.192 128.997 70.0773 128.997 66.664C128.997 63.2507 128.272 60.1787 126.821 57.448C125.37 54.632 123.322 52.4133 120.677 50.792C118.117 49.0853 115.173 48.232 111.845 48.232C108.602 48.232 105.658 49.0853 103.013 50.792C100.453 52.4987 98.405 54.76 96.869 57.576C95.4183 60.3067 94.693 63.336 94.693 66.664ZM182.619 119.784C178.694 119.784 175.238 119.315 172.251 118.376C169.264 117.523 166.534 116.285 164.059 114.664C161.67 113.043 159.366 111.208 157.147 109.16L164.059 101.096C166.875 103.741 169.734 105.789 172.635 107.24C175.536 108.691 178.779 109.416 182.363 109.416C186.374 109.416 189.744 108.733 192.475 107.368C195.291 106.088 197.424 104.253 198.875 101.864C200.326 99.56 201.051 96.872 201.051 93.8L201.139 84C199.603 87.6693 197.894 88.552 193.883 91.112C189.872 93.5867 185.008 94.824 179.291 94.824C174.427 94.824 169.947 93.5867 165.851 91.112C161.84 88.6373 158.598 85.3093 156.123 81.128C153.734 76.8613 152.539 72.0827 152.539 66.792C152.539 61.2453 153.819 56.3813 156.379 52.2C158.939 47.9333 162.31 44.5627 166.491 42.088C170.672 39.6133 175.238 38.376 180.187 38.376C184.88 38.376 189.147 39.3573 192.987 41.32C196.912 43.1973 199.771 45.6293 201.563 48.616L200.923 50.792L202.203 40.552H213.083V93.928C213.083 98.7067 211.846 103.059 209.371 106.984C206.896 110.909 203.398 114.024 198.875 116.328C194.352 118.632 188.934 119.784 182.619 119.784ZM164.443 66.536C164.443 69.9493 165.254 73.064 166.875 75.88C168.496 78.696 170.672 80.9147 173.403 82.536C176.219 84.1573 179.334 84.968 182.747 84.968C185.904 84.968 188.72 84.4133 191.195 83.304C193.755 82.1093 195.888 80.5307 197.595 78.568C199.302 76.52 200.496 74.1733 201.179 71.528V61.032C200.411 58.472 199.131 56.2533 197.339 54.376C195.547 52.4133 193.414 50.92 190.939 49.896C188.464 48.7867 185.734 48.232 182.747 48.232C179.334 48.232 176.219 49 173.403 50.536C170.672 52.072 168.496 54.248 166.875 57.064C165.254 59.7947 164.443 62.952 164.443 66.536ZM233.647 40.552H245.551V93.544H233.647V40.552ZM232.751 21.352C232.751 19.4747 233.476 17.896 234.927 16.616C236.463 15.336 238.127 14.696 239.919 14.696C241.711 14.696 243.29 15.336 244.655 16.616C246.106 17.896 246.831 19.4747 246.831 21.352C246.831 23.3147 246.106 24.936 244.655 26.216C243.29 27.4107 241.711 28.008 239.919 28.008C238.127 28.008 236.463 27.368 234.927 26.088C233.476 24.808 232.751 23.2293 232.751 21.352ZM276.771 40.552L277.795 53.48L277.283 51.432C278.99 47.5067 281.763 44.392 285.603 42.088C289.443 39.6987 293.88 38.504 298.915 38.504C303.95 38.504 308.046 39.9973 311.203 42.984C314.446 45.8853 316.11 49.6827 316.195 54.376V93.544H304.163V58.6C304.078 55.6987 303.224 53.352 301.603 51.56C300.067 49.6827 297.635 48.744 294.307 48.744C291.235 48.744 288.462 49.5973 285.987 51.304C283.512 53.0107 281.55 55.3573 280.099 58.344C278.734 61.3307 278.051 64.7867 278.051 68.712V93.544H266.147V40.552H276.771ZM12.892 145.256H24.796V168.808H39.388V178.152H24.796V221.544H12.892V178.152H3.164V168.808H12.892V145.256ZM49.164 194.536C49.164 189.245 50.4013 184.467 52.876 180.2C55.436 175.933 58.9347 172.563 63.372 170.088C67.8093 167.613 72.844 166.376 78.476 166.376C84.2787 166.376 89.356 167.613 93.708 170.088C98.06 172.563 101.431 175.933 103.82 180.2C106.209 184.467 107.404 189.245 107.404 194.536C107.404 199.827 106.209 204.648 103.82 209C101.431 213.267 98.0173 216.637 93.58 219.112C89.228 221.587 84.1507 222.824 78.348 222.824C72.716 222.824 67.6813 221.672 63.244 219.368C58.892 216.979 55.436 213.693 52.876 209.512C50.4013 205.245 49.164 200.253 49.164 194.536ZM61.068 194.664C61.068 198.077 61.836 201.192 63.372 204.008C64.908 206.739 66.956 208.915 69.516 210.536C72.1613 212.157 75.0627 212.968 78.22 212.968C81.548 212.968 84.492 212.157 87.052 210.536C89.6973 208.915 91.7453 206.739 93.196 204.008C94.6467 201.192 95.372 198.077 95.372 194.664C95.372 191.251 94.6467 188.179 93.196 185.448C91.7453 182.632 89.6973 180.413 87.052 178.792C84.492 177.085 81.548 176.232 78.22 176.232C74.9773 176.232 72.0333 177.085 69.388 178.792C66.828 180.499 64.78 182.76 63.244 185.576C61.7933 188.307 61.068 191.336 61.068 194.664ZM168.556 247.016L203.5 168.552H214.454L180.278 247.016H168.556ZM180.5 220.075L156.086 168.552H169.526L187.115 205.222L180.5 220.075ZM221.039 194.536C221.039 189.245 222.276 184.467 224.751 180.2C227.311 175.933 230.81 172.563 235.247 170.088C239.684 167.613 244.719 166.376 250.351 166.376C256.154 166.376 261.231 167.613 265.583 170.088C269.935 172.563 273.306 175.933 275.695 180.2C278.084 184.467 279.279 189.245 279.279 194.536C279.279 199.827 278.084 204.648 275.695 209C273.306 213.267 269.892 216.637 265.455 219.112C261.103 221.587 256.026 222.824 250.223 222.824C244.591 222.824 239.556 221.672 235.119 219.368C230.767 216.979 227.311 213.693 224.751 209.512C222.276 205.245 221.039 200.253 221.039 194.536ZM232.943 194.664C232.943 198.077 233.711 201.192 235.247 204.008C236.783 206.739 238.831 208.915 241.391 210.536C244.036 212.157 246.938 212.968 250.095 212.968C253.423 212.968 256.367 212.157 258.927 210.536C261.572 208.915 263.62 206.739 265.071 204.008C266.522 201.192 267.247 198.077 267.247 194.664C267.247 191.251 266.522 188.179 265.071 185.448C263.62 182.632 261.572 180.413 258.927 178.792C256.367 177.085 253.423 176.232 250.095 176.232C246.852 176.232 243.908 177.085 241.263 178.792C238.703 180.499 236.655 182.76 235.119 185.576C233.668 188.307 232.943 191.336 232.943 194.664ZM312.165 223.592C307.386 223.592 303.418 222.141 300.261 219.24C297.189 216.253 295.568 212.413 295.397 207.72V168.552H307.301V203.496C307.472 206.397 308.282 208.744 309.733 210.536C311.269 212.328 313.658 213.267 316.901 213.352C319.888 213.352 322.533 212.499 324.837 210.792C327.226 209 329.146 206.611 330.597 203.624C332.048 200.552 332.773 197.096 332.773 193.256V168.552H344.677V221.544H333.797L333.026 211.709C332.002 214.184 330.81 215.485 328.677 217.448C326.629 219.325 324.197 220.819 321.381 221.928C318.565 223.037 315.493 223.592 312.165 223.592ZM375.896 168.552L376.798 180.584C378.164 177.341 379.736 175.891 382.296 173.672C384.941 171.368 387.672 169.619 390.488 168.424C393.389 167.144 395.907 166.504 398.04 166.504L397.4 178.28C393.389 178.024 389.848 178.792 386.776 180.584C383.789 182.376 381.4 184.765 379.608 187.752C377.901 190.739 377.048 193.939 377.048 197.352V221.544H365.272V168.552H375.896ZM1.5 349.544L41.948 253.16H42.716L83.036 349.544H68.828L41.8582 280.544L13.66 349.544H1.5ZM27.9928 314.472H55.1195L59.3221 325.224H23.5988L27.9928 314.472ZM139.28 344.68C136.891 346.557 134.032 348.051 130.704 349.16C127.376 350.269 124.048 350.824 120.72 350.824C114.917 350.824 109.84 349.672 105.488 347.368C101.136 345.064 97.7227 341.864 95.248 337.768C92.8587 333.587 91.664 328.68 91.664 323.048C91.664 317.416 92.944 312.509 95.504 308.328C98.1493 304.147 101.563 300.947 105.744 298.728C110.011 296.424 114.576 295.272 119.44 295.272C123.707 295.272 127.504 295.869 130.832 297.064C134.245 298.259 137.147 299.88 139.536 301.928L133.648 309.608C132.112 308.413 130.235 307.347 128.016 306.408C125.797 305.469 123.28 305 120.464 305C117.392 305 114.533 305.811 111.888 307.432C109.328 308.968 107.28 311.101 105.744 313.832C104.293 316.563 103.568 319.635 103.568 323.048C103.568 326.291 104.336 329.32 105.872 332.136C107.408 334.867 109.541 337.043 112.272 338.664C115.003 340.2 118.117 340.968 121.616 340.968C123.92 340.968 126.011 340.627 127.888 339.944C129.851 339.261 131.6 338.323 133.136 337.128L139.28 344.68ZM197.655 344.68C195.266 346.557 192.407 348.051 189.079 349.16C185.751 350.269 182.423 350.824 179.095 350.824C173.292 350.824 168.215 349.672 163.863 347.368C159.511 345.064 156.098 341.864 153.623 337.768C151.234 333.587 150.039 328.68 150.039 323.048C150.039 317.416 151.319 312.509 153.879 308.328C156.524 304.147 159.938 300.947 164.119 298.728C168.386 296.424 172.951 295.272 177.815 295.272C182.082 295.272 185.879 295.869 189.207 297.064C192.62 298.259 195.522 299.88 197.911 301.928L192.023 309.608C190.487 308.413 188.61 307.347 186.391 306.408C184.172 305.469 181.655 305 178.839 305C175.767 305 172.908 305.811 170.263 307.432C167.703 308.968 165.655 311.101 164.119 313.832C162.668 316.563 161.943 319.635 161.943 323.048C161.943 326.291 162.711 329.32 164.247 332.136C165.783 334.867 167.916 337.043 170.647 338.664C173.378 340.2 176.492 340.968 179.991 340.968C182.295 340.968 184.386 340.627 186.263 339.944C188.226 339.261 189.975 338.323 191.511 337.128L197.655 344.68ZM208.414 322.536C208.414 317.245 209.651 312.467 212.126 308.2C214.686 303.933 218.185 300.563 222.622 298.088C227.059 295.613 232.094 294.376 237.726 294.376C243.529 294.376 248.606 295.613 252.958 298.088C257.31 300.563 260.681 303.933 263.07 308.2C265.459 312.467 266.654 317.245 266.654 322.536C266.654 327.827 265.459 332.648 263.07 337C260.681 341.267 257.267 344.637 252.83 347.112C248.478 349.587 243.401 350.824 237.598 350.824C231.966 350.824 226.931 349.672 222.494 347.368C218.142 344.979 214.686 341.693 212.126 337.512C209.651 333.245 208.414 328.253 208.414 322.536ZM220.318 322.664C220.318 326.077 221.086 329.192 222.622 332.008C224.158 334.739 226.206 336.915 228.766 338.536C231.411 340.157 234.313 340.968 237.47 340.968C240.798 340.968 243.742 340.157 246.302 338.536C248.947 336.915 250.995 334.739 252.446 332.008C253.897 329.192 254.622 326.077 254.622 322.664C254.622 319.251 253.897 316.179 252.446 313.448C250.995 310.632 248.947 308.413 246.302 306.792C243.742 305.085 240.798 304.232 237.47 304.232C234.227 304.232 231.283 305.085 228.638 306.792C226.078 308.499 224.03 310.76 222.494 313.576C221.043 316.307 220.318 319.336 220.318 322.664ZM299.54 351.592C294.761 351.592 290.793 350.141 287.636 347.24C284.564 344.253 282.943 340.413 282.772 335.72V296.552H294.676V331.496C294.847 334.397 295.657 336.744 297.108 338.536C298.644 340.328 301.033 341.267 304.276 341.352C307.263 341.352 309.908 340.499 312.212 338.792C314.601 337 316.521 334.611 317.972 331.624C319.423 328.552 320.148 325.096 320.148 321.256V296.552H332.052V349.544H321.172V339.5C320.148 341.975 318.185 343.485 316.052 345.448C314.004 347.325 311.572 348.819 308.756 349.928C305.94 351.037 302.868 351.592 299.54 351.592ZM363.271 296.552L364.099 307C365.805 303.075 368.263 300.392 372.103 298.088C375.943 295.699 380.38 294.504 385.415 294.504C390.45 294.504 394.546 295.997 397.703 298.984C400.946 301.885 402.61 305.683 402.695 310.376V349.544H390.663V314.6C390.578 311.699 389.724 309.352 388.103 307.56C386.567 305.683 384.135 304.744 380.807 304.744C377.735 304.744 374.962 305.597 372.487 307.304C370.012 309.011 368.05 311.357 366.599 314.344C365.234 317.331 364.551 320.787 364.551 324.712V349.544H352.647V296.552H363.271ZM428.517 273.256H440.421V296.808H455.013V306.152H440.421V349.544H428.517V306.152H418.789V296.808H428.517V273.256Z"/>
</mask>
<path d="M10.716 1H23.132V81.64H70.108V93.544H10.716V1ZM82.789 66.536C82.789 61.2453 84.0263 56.4667 86.501 52.2C89.061 47.9333 92.5597 44.5627 96.997 42.088C101.434 39.6133 106.469 38.376 112.101 38.376C117.904 38.376 122.981 39.6133 127.333 42.088C131.685 44.5627 135.056 47.9333 137.445 52.2C139.834 56.4667 141.029 61.2453 141.029 66.536C141.029 71.8267 139.834 76.648 137.445 81C135.056 85.2667 131.642 88.6373 127.205 91.112C122.853 93.5867 117.776 94.824 111.973 94.824C106.341 94.824 101.306 93.672 96.869 91.368C92.517 88.9787 89.061 85.6933 86.501 81.512C84.0263 77.2453 82.789 72.2533 82.789 66.536ZM94.693 66.664C94.693 70.0773 95.461 73.192 96.997 76.008C98.533 78.7387 100.581 80.9147 103.141 82.536C105.786 84.1573 108.688 84.968 111.845 84.968C115.173 84.968 118.117 84.1573 120.677 82.536C123.322 80.9147 125.37 78.7387 126.821 76.008C128.272 73.192 128.997 70.0773 128.997 66.664C128.997 63.2507 128.272 60.1787 126.821 57.448C125.37 54.632 123.322 52.4133 120.677 50.792C118.117 49.0853 115.173 48.232 111.845 48.232C108.602 48.232 105.658 49.0853 103.013 50.792C100.453 52.4987 98.405 54.76 96.869 57.576C95.4183 60.3067 94.693 63.336 94.693 66.664ZM182.619 119.784C178.694 119.784 175.238 119.315 172.251 118.376C169.264 117.523 166.534 116.285 164.059 114.664C161.67 113.043 159.366 111.208 157.147 109.16L164.059 101.096C166.875 103.741 169.734 105.789 172.635 107.24C175.536 108.691 178.779 109.416 182.363 109.416C186.374 109.416 189.744 108.733 192.475 107.368C195.291 106.088 197.424 104.253 198.875 101.864C200.326 99.56 201.051 96.872 201.051 93.8L201.139 84C199.603 87.6693 197.894 88.552 193.883 91.112C189.872 93.5867 185.008 94.824 179.291 94.824C174.427 94.824 169.947 93.5867 165.851 91.112C161.84 88.6373 158.598 85.3093 156.123 81.128C153.734 76.8613 152.539 72.0827 152.539 66.792C152.539 61.2453 153.819 56.3813 156.379 52.2C158.939 47.9333 162.31 44.5627 166.491 42.088C170.672 39.6133 175.238 38.376 180.187 38.376C184.88 38.376 189.147 39.3573 192.987 41.32C196.912 43.1973 199.771 45.6293 201.563 48.616L200.923 50.792L202.203 40.552H213.083V93.928C213.083 98.7067 211.846 103.059 209.371 106.984C206.896 110.909 203.398 114.024 198.875 116.328C194.352 118.632 188.934 119.784 182.619 119.784ZM164.443 66.536C164.443 69.9493 165.254 73.064 166.875 75.88C168.496 78.696 170.672 80.9147 173.403 82.536C176.219 84.1573 179.334 84.968 182.747 84.968C185.904 84.968 188.72 84.4133 191.195 83.304C193.755 82.1093 195.888 80.5307 197.595 78.568C199.302 76.52 200.496 74.1733 201.179 71.528V61.032C200.411 58.472 199.131 56.2533 197.339 54.376C195.547 52.4133 193.414 50.92 190.939 49.896C188.464 48.7867 185.734 48.232 182.747 48.232C179.334 48.232 176.219 49 173.403 50.536C170.672 52.072 168.496 54.248 166.875 57.064C165.254 59.7947 164.443 62.952 164.443 66.536ZM233.647 40.552H245.551V93.544H233.647V40.552ZM232.751 21.352C232.751 19.4747 233.476 17.896 234.927 16.616C236.463 15.336 238.127 14.696 239.919 14.696C241.711 14.696 243.29 15.336 244.655 16.616C246.106 17.896 246.831 19.4747 246.831 21.352C246.831 23.3147 246.106 24.936 244.655 26.216C243.29 27.4107 241.711 28.008 239.919 28.008C238.127 28.008 236.463 27.368 234.927 26.088C233.476 24.808 232.751 23.2293 232.751 21.352ZM276.771 40.552L277.795 53.48L277.283 51.432C278.99 47.5067 281.763 44.392 285.603 42.088C289.443 39.6987 293.88 38.504 298.915 38.504C303.95 38.504 308.046 39.9973 311.203 42.984C314.446 45.8853 316.11 49.6827 316.195 54.376V93.544H304.163V58.6C304.078 55.6987 303.224 53.352 301.603 51.56C300.067 49.6827 297.635 48.744 294.307 48.744C291.235 48.744 288.462 49.5973 285.987 51.304C283.512 53.0107 281.55 55.3573 280.099 58.344C278.734 61.3307 278.051 64.7867 278.051 68.712V93.544H266.147V40.552H276.771ZM12.892 145.256H24.796V168.808H39.388V178.152H24.796V221.544H12.892V178.152H3.164V168.808H12.892V145.256ZM49.164 194.536C49.164 189.245 50.4013 184.467 52.876 180.2C55.436 175.933 58.9347 172.563 63.372 170.088C67.8093 167.613 72.844 166.376 78.476 166.376C84.2787 166.376 89.356 167.613 93.708 170.088C98.06 172.563 101.431 175.933 103.82 180.2C106.209 184.467 107.404 189.245 107.404 194.536C107.404 199.827 106.209 204.648 103.82 209C101.431 213.267 98.0173 216.637 93.58 219.112C89.228 221.587 84.1507 222.824 78.348 222.824C72.716 222.824 67.6813 221.672 63.244 219.368C58.892 216.979 55.436 213.693 52.876 209.512C50.4013 205.245 49.164 200.253 49.164 194.536ZM61.068 194.664C61.068 198.077 61.836 201.192 63.372 204.008C64.908 206.739 66.956 208.915 69.516 210.536C72.1613 212.157 75.0627 212.968 78.22 212.968C81.548 212.968 84.492 212.157 87.052 210.536C89.6973 208.915 91.7453 206.739 93.196 204.008C94.6467 201.192 95.372 198.077 95.372 194.664C95.372 191.251 94.6467 188.179 93.196 185.448C91.7453 182.632 89.6973 180.413 87.052 178.792C84.492 177.085 81.548 176.232 78.22 176.232C74.9773 176.232 72.0333 177.085 69.388 178.792C66.828 180.499 64.78 182.76 63.244 185.576C61.7933 188.307 61.068 191.336 61.068 194.664ZM168.556 247.016L203.5 168.552H214.454L180.278 247.016H168.556ZM180.5 220.075L156.086 168.552H169.526L187.115 205.222L180.5 220.075ZM221.039 194.536C221.039 189.245 222.276 184.467 224.751 180.2C227.311 175.933 230.81 172.563 235.247 170.088C239.684 167.613 244.719 166.376 250.351 166.376C256.154 166.376 261.231 167.613 265.583 170.088C269.935 172.563 273.306 175.933 275.695 180.2C278.084 184.467 279.279 189.245 279.279 194.536C279.279 199.827 278.084 204.648 275.695 209C273.306 213.267 269.892 216.637 265.455 219.112C261.103 221.587 256.026 222.824 250.223 222.824C244.591 222.824 239.556 221.672 235.119 219.368C230.767 216.979 227.311 213.693 224.751 209.512C222.276 205.245 221.039 200.253 221.039 194.536ZM232.943 194.664C232.943 198.077 233.711 201.192 235.247 204.008C236.783 206.739 238.831 208.915 241.391 210.536C244.036 212.157 246.938 212.968 250.095 212.968C253.423 212.968 256.367 212.157 258.927 210.536C261.572 208.915 263.62 206.739 265.071 204.008C266.522 201.192 267.247 198.077 267.247 194.664C267.247 191.251 266.522 188.179 265.071 185.448C263.62 182.632 261.572 180.413 258.927 178.792C256.367 177.085 253.423 176.232 250.095 176.232C246.852 176.232 243.908 177.085 241.263 178.792C238.703 180.499 236.655 182.76 235.119 185.576C233.668 188.307 232.943 191.336 232.943 194.664ZM312.165 223.592C307.386 223.592 303.418 222.141 300.261 219.24C297.189 216.253 295.568 212.413 295.397 207.72V168.552H307.301V203.496C307.472 206.397 308.282 208.744 309.733 210.536C311.269 212.328 313.658 213.267 316.901 213.352C319.888 213.352 322.533 212.499 324.837 210.792C327.226 209 329.146 206.611 330.597 203.624C332.048 200.552 332.773 197.096 332.773 193.256V168.552H344.677V221.544H333.797L333.026 211.709C332.002 214.184 330.81 215.485 328.677 217.448C326.629 219.325 324.197 220.819 321.381 221.928C318.565 223.037 315.493 223.592 312.165 223.592ZM375.896 168.552L376.798 180.584C378.164 177.341 379.736 175.891 382.296 173.672C384.941 171.368 387.672 169.619 390.488 168.424C393.389 167.144 395.907 166.504 398.04 166.504L397.4 178.28C393.389 178.024 389.848 178.792 386.776 180.584C383.789 182.376 381.4 184.765 379.608 187.752C377.901 190.739 377.048 193.939 377.048 197.352V221.544H365.272V168.552H375.896ZM1.5 349.544L41.948 253.16H42.716L83.036 349.544H68.828L41.8582 280.544L13.66 349.544H1.5ZM27.9928 314.472H55.1195L59.3221 325.224H23.5988L27.9928 314.472ZM139.28 344.68C136.891 346.557 134.032 348.051 130.704 349.16C127.376 350.269 124.048 350.824 120.72 350.824C114.917 350.824 109.84 349.672 105.488 347.368C101.136 345.064 97.7227 341.864 95.248 337.768C92.8587 333.587 91.664 328.68 91.664 323.048C91.664 317.416 92.944 312.509 95.504 308.328C98.1493 304.147 101.563 300.947 105.744 298.728C110.011 296.424 114.576 295.272 119.44 295.272C123.707 295.272 127.504 295.869 130.832 297.064C134.245 298.259 137.147 299.88 139.536 301.928L133.648 309.608C132.112 308.413 130.235 307.347 128.016 306.408C125.797 305.469 123.28 305 120.464 305C117.392 305 114.533 305.811 111.888 307.432C109.328 308.968 107.28 311.101 105.744 313.832C104.293 316.563 103.568 319.635 103.568 323.048C103.568 326.291 104.336 329.32 105.872 332.136C107.408 334.867 109.541 337.043 112.272 338.664C115.003 340.2 118.117 340.968 121.616 340.968C123.92 340.968 126.011 340.627 127.888 339.944C129.851 339.261 131.6 338.323 133.136 337.128L139.28 344.68ZM197.655 344.68C195.266 346.557 192.407 348.051 189.079 349.16C185.751 350.269 182.423 350.824 179.095 350.824C173.292 350.824 168.215 349.672 163.863 347.368C159.511 345.064 156.098 341.864 153.623 337.768C151.234 333.587 150.039 328.68 150.039 323.048C150.039 317.416 151.319 312.509 153.879 308.328C156.524 304.147 159.938 300.947 164.119 298.728C168.386 296.424 172.951 295.272 177.815 295.272C182.082 295.272 185.879 295.869 189.207 297.064C192.62 298.259 195.522 299.88 197.911 301.928L192.023 309.608C190.487 308.413 188.61 307.347 186.391 306.408C184.172 305.469 181.655 305 178.839 305C175.767 305 172.908 305.811 170.263 307.432C167.703 308.968 165.655 311.101 164.119 313.832C162.668 316.563 161.943 319.635 161.943 323.048C161.943 326.291 162.711 329.32 164.247 332.136C165.783 334.867 167.916 337.043 170.647 338.664C173.378 340.2 176.492 340.968 179.991 340.968C182.295 340.968 184.386 340.627 186.263 339.944C188.226 339.261 189.975 338.323 191.511 337.128L197.655 344.68ZM208.414 322.536C208.414 317.245 209.651 312.467 212.126 308.2C214.686 303.933 218.185 300.563 222.622 298.088C227.059 295.613 232.094 294.376 237.726 294.376C243.529 294.376 248.606 295.613 252.958 298.088C257.31 300.563 260.681 303.933 263.07 308.2C265.459 312.467 266.654 317.245 266.654 322.536C266.654 327.827 265.459 332.648 263.07 337C260.681 341.267 257.267 344.637 252.83 347.112C248.478 349.587 243.401 350.824 237.598 350.824C231.966 350.824 226.931 349.672 222.494 347.368C218.142 344.979 214.686 341.693 212.126 337.512C209.651 333.245 208.414 328.253 208.414 322.536ZM220.318 322.664C220.318 326.077 221.086 329.192 222.622 332.008C224.158 334.739 226.206 336.915 228.766 338.536C231.411 340.157 234.313 340.968 237.47 340.968C240.798 340.968 243.742 340.157 246.302 338.536C248.947 336.915 250.995 334.739 252.446 332.008C253.897 329.192 254.622 326.077 254.622 322.664C254.622 319.251 253.897 316.179 252.446 313.448C250.995 310.632 248.947 308.413 246.302 306.792C243.742 305.085 240.798 304.232 237.47 304.232C234.227 304.232 231.283 305.085 228.638 306.792C226.078 308.499 224.03 310.76 222.494 313.576C221.043 316.307 220.318 319.336 220.318 322.664ZM299.54 351.592C294.761 351.592 290.793 350.141 287.636 347.24C284.564 344.253 282.943 340.413 282.772 335.72V296.552H294.676V331.496C294.847 334.397 295.657 336.744 297.108 338.536C298.644 340.328 301.033 341.267 304.276 341.352C307.263 341.352 309.908 340.499 312.212 338.792C314.601 337 316.521 334.611 317.972 331.624C319.423 328.552 320.148 325.096 320.148 321.256V296.552H332.052V349.544H321.172V339.5C320.148 341.975 318.185 343.485 316.052 345.448C314.004 347.325 311.572 348.819 308.756 349.928C305.94 351.037 302.868 351.592 299.54 351.592ZM363.271 296.552L364.099 307C365.805 303.075 368.263 300.392 372.103 298.088C375.943 295.699 380.38 294.504 385.415 294.504C390.45 294.504 394.546 295.997 397.703 298.984C400.946 301.885 402.61 305.683 402.695 310.376V349.544H390.663V314.6C390.578 311.699 389.724 309.352 388.103 307.56C386.567 305.683 384.135 304.744 380.807 304.744C377.735 304.744 374.962 305.597 372.487 307.304C370.012 309.011 368.05 311.357 366.599 314.344C365.234 317.331 364.551 320.787 364.551 324.712V349.544H352.647V296.552H363.271ZM428.517 273.256H440.421V296.808H455.013V306.152H440.421V349.544H428.517V306.152H418.789V296.808H428.517V273.256Z" stroke="#EF8B5D" stroke-width="2" mask="url(#path-1-outside-1_37_263)"/>
</svg>
