<svg width="723" height="179" viewBox="0 0 723 179" fill="none" xmlns="http://www.w3.org/2000/svg">
<path d="M111.673 160.008L112.035 159.771L111.852 159.379L102.676 139.69L102.418 139.136L101.926 139.499C97.6877 142.62 92.309 145.441 85.7798 147.957C79.2903 150.457 71.8954 151.677 63.587 151.604C54.3734 151.524 46.0959 149.866 38.7463 146.64C31.387 143.41 25.0995 138.986 19.8778 133.369C14.807 127.752 10.8704 121.164 8.07007 113.599C5.42312 105.883 4.13627 97.5699 4.21406 88.6559C4.29048 79.8998 5.87081 71.7696 8.95044 64.2604C12.1873 56.591 16.5446 49.9184 22.0213 44.2375C27.4988 38.5559 33.7916 34.1653 40.902 31.0624C48.0073 27.9618 55.5511 26.4456 63.5386 26.5153C71.3839 26.5837 78.4475 28.0031 84.7374 30.764L84.7412 30.7657C91.2318 33.5495 96.7246 36.4713 101.225 39.5287L101.72 39.8651L101.963 39.3179L111.034 18.8762L111.208 18.4848L110.848 18.253C105.062 14.5279 98.1346 11.3355 90.0722 8.67134C81.9822 5.84538 72.9725 4.39275 63.0484 4.30615C51.1317 4.20215 40.1023 6.24526 29.9663 10.4414L29.9638 10.4425C19.9854 14.638 11.2888 20.6051 3.87798 28.3422C-3.53214 35.928 -9.34502 44.9778 -13.5628 55.4853L-13.5642 55.489C-17.6309 65.853 -19.7151 77.2205 -19.823 89.5862C-19.9216 100.891 -18.1051 111.608 -14.3709 121.732L-14.3709 121.732L-14.3676 121.741C-10.4797 131.712 -4.97518 140.554 2.14551 148.263C9.27211 155.978 17.9406 162.096 28.144 166.619L28.1465 166.62C38.5112 171.147 50.1086 173.539 62.9313 173.804L62.9373 173.804C70.4177 173.869 77.3036 173.166 83.5924 171.69C90.0162 170.22 95.6163 168.358 100.388 166.1C105.13 163.857 108.894 161.826 111.673 160.008ZM180.995 172.316L180.698 173.007L181.45 173.014L203.109 173.203L203.445 173.206L203.575 172.896L221.752 129.503L284.178 129.997L300.911 173.739L301.032 174.057L301.373 174.06L326.68 174.281L327.431 174.288L327.148 173.592L256.829 1.2881L256.703 0.979949L256.37 0.977045L255.002 0.965107L254.67 0.962206L254.538 1.26759L180.995 172.316ZM254.282 51.8444L276.531 110.007L229.737 110.44L254.282 51.8444ZM430.77 76.2313L430.772 76.2106L430.772 76.1898L431.351 9.84435L431.355 9.34437L430.855 9.34001L408.512 9.14502L408.012 9.14066L408.008 9.64064L406.569 174.478L406.565 174.978L407.065 174.983L429.408 175.178L429.908 175.182L429.913 174.682L430.492 108.321L443.953 95.5266L503.108 175.621L503.256 175.822L503.505 175.824L531.548 176.069L532.56 176.078L531.952 175.269L460.987 80.8233L529.472 11.0478L530.297 10.2078L529.12 10.1975L500.621 9.94884L500.407 9.94698L500.258 10.0998L432.158 79.9602L432.134 79.985L432.113 80.0129L430.179 82.6422L430.77 76.2313ZM612.591 10.926L612.091 10.9216L612.087 11.4216L610.648 176.259L610.644 176.759L611.144 176.764L721.492 177.727L721.992 177.731L721.996 177.231L722.181 156.028L722.186 155.528L721.686 155.524L633.953 154.758L634.39 104.688L709.811 105.346L710.311 105.35L710.315 104.85L710.5 83.6472L710.505 83.1472L710.005 83.1428L634.584 82.4846L635.013 33.3265L719.553 34.0643L720.053 34.0686L720.058 33.5687L720.243 12.3655L720.247 11.8655L719.747 11.8611L612.591 10.926Z" stroke="#EF8B5D"/>
</svg>
