<svg width="942" height="171" viewBox="0 0 942 171" fill="none" xmlns="http://www.w3.org/2000/svg">
<mask id="path-1-outside-1_24_206" maskUnits="userSpaceOnUse" x="-0.235901" y="0.33197" width="952" height="171" fill="black">
<rect fill="white" x="-0.235901" y="0.33197" width="952" height="171"/>
<path d="M852.275 32.568C857.899 29.68 864.055 27.172 870.743 25.044C877.431 22.916 883.967 21.852 890.351 21.852C899.167 21.852 906.235 23.904 911.555 28.008C916.723 32.112 919.307 37.584 919.307 44.424C919.307 49.592 917.635 54 914.291 57.648C910.947 61.144 906.539 64.184 901.067 66.768C895.595 69.352 889.895 71.784 883.967 74.064C878.799 76.04 873.707 78.244 868.691 80.676C863.675 83.108 859.191 86.148 855.239 89.796C851.135 93.444 847.943 97.928 845.663 103.248C843.231 108.568 842.015 115.18 842.015 123.084C842.015 131.748 844.219 139.652 848.627 146.796C852.883 153.94 859.039 159.564 867.095 163.668C875.151 167.772 884.727 169.824 895.823 169.824C903.119 169.824 910.111 168.988 916.799 167.316C923.335 165.644 929.415 163.516 935.039 160.932C940.663 158.196 945.679 155.384 950.087 152.496L940.283 135.168C936.635 137.752 932.455 140.26 927.743 142.692C923.031 144.972 918.091 146.872 912.923 148.392C907.755 149.76 902.739 150.444 897.875 150.444C892.707 150.444 887.615 149.532 882.599 147.708C877.431 145.732 873.175 142.768 869.831 138.816C866.487 134.864 864.815 129.62 864.815 123.084C864.815 117.46 866.335 112.824 869.375 109.176C872.263 105.376 876.139 102.184 881.003 99.6C885.867 96.864 891.035 94.432 896.507 92.304C901.675 90.328 906.919 88.2 912.239 85.92C917.559 83.488 922.499 80.6 927.059 77.256C931.619 73.76 935.267 69.504 938.003 64.488C940.739 59.472 942.107 53.392 942.107 46.248C942.107 37.584 940.055 30.06 935.951 23.676C931.695 17.14 925.919 12.048 918.623 8.39996C911.327 4.59996 902.967 2.54796 893.543 2.24396C882.903 2.24396 873.555 3.53596 865.499 6.11996C857.291 8.70397 850.071 11.896 843.839 15.696L852.275 32.568ZM767.588 3.15596H658.148V24.36H702.38V168H724.496V24.36H767.588V3.15596ZM583.943 85.692C583.943 74.292 581.815 63.576 577.559 53.544C573.151 43.36 567.071 34.392 559.319 26.64C551.567 18.736 542.675 12.58 532.643 8.17196C522.459 3.61197 511.515 1.33197 499.811 1.33197C488.259 1.33197 477.467 3.61197 467.435 8.17196C457.251 12.58 448.283 18.736 440.531 26.64C432.627 34.392 426.471 43.36 422.063 53.544C417.655 63.576 415.451 74.292 415.451 85.692C415.451 97.396 417.655 108.34 422.063 118.524C426.471 128.708 432.627 137.676 440.531 145.428C448.283 153.028 457.251 159.032 467.435 163.44C477.467 167.696 488.259 169.824 499.811 169.824C511.515 169.824 522.459 167.696 532.643 163.44C542.675 159.184 551.567 153.256 559.319 145.656C567.071 138.056 573.151 129.164 577.559 118.98C581.815 108.796 583.943 97.7 583.943 85.692ZM561.143 85.92C561.143 94.584 559.547 102.716 556.355 110.316C553.163 117.764 548.755 124.376 543.131 130.152C537.507 135.928 530.971 140.488 523.523 143.832C516.075 147.024 508.019 148.62 499.355 148.62C490.843 148.62 482.863 147.024 475.415 143.832C467.967 140.488 461.507 135.928 456.035 130.152C450.563 124.376 446.231 117.764 443.039 110.316C439.847 102.716 438.251 94.508 438.251 85.692C438.251 77.028 439.847 68.896 443.039 61.296C446.231 53.544 450.639 46.78 456.263 41.004C461.887 35.228 468.423 30.744 475.871 27.552C483.319 24.208 491.299 22.536 499.811 22.536C508.475 22.536 516.531 24.208 523.979 27.552C531.427 30.896 537.963 35.456 543.587 41.232C549.211 47.008 553.543 53.772 556.583 61.524C559.623 69.124 561.143 77.256 561.143 85.92ZM285.074 3.15596C276.714 3.15596 269.038 4.29596 262.046 6.57597C254.902 8.70397 248.746 11.972 243.578 16.38C238.258 20.636 234.154 25.956 231.266 32.34C228.226 38.572 226.706 45.868 226.706 54.228C226.706 60.764 227.694 67.148 229.67 73.38C231.494 79.612 234.61 85.312 239.018 90.48C243.426 95.496 249.202 99.6 256.346 102.792C263.338 105.832 272.002 107.352 282.338 107.352H306.734V168H328.85V3.15596H285.074ZM282.794 86.148C276.258 86.148 270.862 85.16 266.606 83.184C262.198 81.208 258.778 78.7 256.346 75.66C253.914 72.468 252.166 69.048 251.102 65.4C250.038 61.752 249.506 58.332 249.506 55.14C249.506 51.796 250.114 48.376 251.33 44.88C252.394 41.232 254.218 37.888 256.802 34.848C259.234 31.808 262.502 29.3 266.606 27.324C270.558 25.348 275.422 24.36 281.198 24.36H306.734V86.148H282.794ZM256.346 102.792L212.57 168H238.106L276 107.148L256.346 102.792ZM85.4401 113.052L146.544 3.15596H119.412L73.6941 88L28.6681 3.15596H1.7641L63.3241 113.052V168H85.4401V113.052Z"/>
</mask>
<path d="M852.275 32.568L851.381 33.0152L851.833 33.9193L852.732 33.4575L852.275 32.568ZM911.555 28.008L912.177 27.2248L912.166 27.2162L911.555 28.008ZM914.291 57.648L915.014 58.3392L915.021 58.3315L915.029 58.3237L914.291 57.648ZM901.067 66.768L900.64 65.8637L900.64 65.8637L901.067 66.768ZM883.967 74.064L884.325 74.998L884.326 74.9973L883.967 74.064ZM855.239 89.796L855.904 90.5434L855.911 90.5371L855.918 90.5308L855.239 89.796ZM845.663 103.248L846.573 103.664L846.578 103.653L846.583 103.642L845.663 103.248ZM848.627 146.796L849.486 146.284L849.483 146.277L849.478 146.271L848.627 146.796ZM867.095 163.668L866.641 164.559L866.641 164.559L867.095 163.668ZM916.799 167.316L917.042 168.286L917.047 168.285L916.799 167.316ZM935.039 160.932L935.457 161.841L935.467 161.836L935.477 161.831L935.039 160.932ZM950.087 152.496L950.635 153.332L951.419 152.819L950.958 152.004L950.087 152.496ZM940.283 135.168L941.154 134.676L940.609 133.712L939.705 134.352L940.283 135.168ZM927.743 142.692L928.179 143.592L928.191 143.587L928.202 143.581L927.743 142.692ZM912.923 148.392L913.179 149.359L913.192 149.355L913.206 149.351L912.923 148.392ZM882.599 147.708L882.242 148.642L882.25 148.645L882.258 148.648L882.599 147.708ZM869.831 138.816L869.068 139.462L869.068 139.462L869.831 138.816ZM869.375 109.176L870.144 109.816L870.158 109.799L870.172 109.781L869.375 109.176ZM881.003 99.6L881.473 100.483L881.483 100.477L881.494 100.472L881.003 99.6ZM896.507 92.304L896.15 91.3699L896.145 91.372L896.507 92.304ZM912.239 85.92L912.633 86.8391L912.644 86.8344L912.655 86.8294L912.239 85.92ZM927.059 77.256L927.651 78.0624L927.659 78.0561L927.668 78.0496L927.059 77.256ZM935.951 23.676L936.793 23.1352L936.789 23.1303L935.951 23.676ZM918.623 8.39996L918.161 9.28688L918.169 9.29069L918.176 9.29439L918.623 8.39996ZM893.543 2.24396L893.576 1.24448L893.56 1.24396H893.543V2.24396ZM865.499 6.11996L865.8 7.07383L865.805 7.07218L865.499 6.11996ZM843.839 15.696L843.319 14.8422L842.534 15.3208L842.945 16.1432L843.839 15.696ZM767.588 3.15596H768.588V2.15596H767.588V3.15596ZM658.148 3.15596V2.15596H657.148V3.15596H658.148ZM658.148 24.36H657.148V25.36H658.148V24.36ZM702.38 24.36H703.38V23.36H702.38V24.36ZM702.38 168H701.38V169H702.38V168ZM724.496 168V169H725.496V168H724.496ZM724.496 24.36V23.36H723.496V24.36H724.496ZM767.588 24.36V25.36H768.588V24.36H767.588ZM577.559 53.544L578.479 53.1534L578.476 53.1467L577.559 53.544ZM559.319 26.64L558.605 27.3402L558.611 27.3471L559.319 26.64ZM532.643 8.17196L532.234 9.08467L532.24 9.08748L532.643 8.17196ZM467.435 8.17196L467.832 9.08969L467.84 9.08608L467.848 9.08233L467.435 8.17196ZM440.531 26.64L441.231 27.3539L441.238 27.3471L441.244 27.3402L440.531 26.64ZM422.063 53.544L422.978 53.9462L422.98 53.9412L422.063 53.544ZM422.063 118.524L421.145 118.921L421.145 118.921L422.063 118.524ZM440.531 145.428L439.83 146.142L439.83 146.142L440.531 145.428ZM467.435 163.44L467.037 164.358L467.044 164.361L467.435 163.44ZM532.643 163.44L533.028 164.363L533.033 164.361L532.643 163.44ZM559.319 145.656L558.618 144.942L558.618 144.942L559.319 145.656ZM577.559 118.98L578.476 119.377L578.481 119.366L577.559 118.98ZM556.355 110.316L557.274 110.71L557.277 110.703L556.355 110.316ZM523.523 143.832L523.916 144.751L523.924 144.748L523.932 144.744L523.523 143.832ZM475.415 143.832L475.005 144.744L475.013 144.748L475.021 144.751L475.415 143.832ZM456.035 130.152L456.76 129.464L456.76 129.464L456.035 130.152ZM443.039 110.316L442.117 110.703L442.119 110.71L443.039 110.316ZM443.039 61.296L443.961 61.6832L443.963 61.6767L443.039 61.296ZM475.871 27.552L476.264 28.4711L476.272 28.4677L476.28 28.4642L475.871 27.552ZM523.979 27.552L524.388 26.6397L524.388 26.6397L523.979 27.552ZM543.587 41.232L544.303 40.5343L544.303 40.5343L543.587 41.232ZM556.583 61.524L555.652 61.8891L555.654 61.8954L556.583 61.524ZM262.046 6.57597L262.331 7.53436L262.344 7.53069L262.356 7.5267L262.046 6.57597ZM243.578 16.38L244.202 17.1608L244.215 17.151L244.227 17.1408L243.578 16.38ZM231.266 32.34L232.164 32.7784L232.171 32.7654L232.177 32.7521L231.266 32.34ZM229.67 73.38L230.629 73.0991L230.626 73.0884L230.623 73.0777L229.67 73.38ZM239.018 90.48L238.257 91.1289L238.262 91.1345L238.267 91.1401L239.018 90.48ZM306.734 107.352H307.734V106.352H306.734V107.352ZM306.734 168H305.734V169H306.734V168ZM328.85 168V169H329.85V168H328.85ZM328.85 3.15596H329.85V2.15596H328.85V3.15596ZM266.606 83.184L267.027 82.2769L267.015 82.2715L266.606 83.184ZM256.346 75.66L255.55 76.266L255.557 76.2754L255.565 76.2847L256.346 75.66ZM251.102 65.4L250.142 65.68L250.142 65.68L251.102 65.4ZM251.33 44.88L252.274 45.2085L252.283 45.1844L252.29 45.16L251.33 44.88ZM256.802 34.848L257.564 35.4956L257.573 35.4843L257.583 35.4727L256.802 34.848ZM266.606 27.324L267.04 28.225L267.046 28.2217L267.053 28.2184L266.606 27.324ZM306.734 24.36H307.734V23.36H306.734V24.36ZM306.734 86.148V87.148H307.734V86.148H306.734ZM212.57 168L211.739 167.443L210.694 169H212.57V168ZM238.106 168V169H238.661L238.955 168.529L238.106 168ZM276 107.148L276.849 107.676L277.596 106.477L276.216 106.171L276 107.148ZM85.4401 113.052L84.5661 112.566L84.4401 112.793V113.052H85.4401ZM146.544 3.15596L147.418 3.64191L148.244 2.15596H146.544V3.15596ZM119.412 3.15596V2.15596H118.815L118.532 2.6816L119.412 3.15596ZM73.6941 88L72.8108 88.4688L73.6874 90.1206L74.5745 88.4744L73.6941 88ZM28.6681 3.15596L29.5514 2.68719L29.2695 2.15596H28.6681V3.15596ZM1.7641 3.15596V2.15596H0.0577281L0.891655 3.64467L1.7641 3.15596ZM63.3241 113.052H64.3241V112.791L64.1966 112.563L63.3241 113.052ZM63.3241 168H62.3241V169H63.3241V168ZM85.4401 168V169H86.4401V168H85.4401ZM852.732 33.4575C858.302 30.5975 864.406 28.1099 871.047 25.9969L870.44 24.091C863.705 26.234 857.497 28.7625 851.819 31.6784L852.732 33.4575ZM871.047 25.9969C877.646 23.897 884.08 22.852 890.351 22.852V20.852C883.855 20.852 877.217 21.9349 870.44 24.091L871.047 25.9969ZM890.351 22.852C899.015 22.852 905.847 24.8676 910.945 28.7997L912.166 27.2162C906.623 22.9403 899.319 20.852 890.351 20.852V22.852ZM910.933 28.7911C915.853 32.6975 918.307 37.8761 918.307 44.424H920.307C920.307 37.2918 917.594 31.5264 912.177 27.2249L910.933 28.7911ZM918.307 44.424C918.307 49.354 916.721 53.5175 913.554 56.9722L915.029 58.3237C918.55 54.4825 920.307 49.83 920.307 44.424H918.307ZM913.569 56.9567C910.328 60.3451 906.028 63.3194 900.64 65.8637L901.494 67.6722C907.05 65.0485 911.567 61.9428 915.014 58.3392L913.569 56.9567ZM900.64 65.8637C895.192 68.4367 889.515 70.859 883.608 73.1306L884.326 74.9973C890.276 72.7089 895.999 70.2673 901.494 67.6722L900.64 65.8637ZM883.61 73.1299C878.415 75.1163 873.297 77.3317 868.255 79.7762L869.128 81.5758C874.118 79.1562 879.184 76.9637 884.325 74.998L883.61 73.1299ZM868.255 79.7762C863.154 82.2494 858.588 85.3442 854.561 89.0612L855.918 90.5308C859.795 86.9518 864.197 83.9665 869.128 81.5758L868.255 79.7762ZM854.575 89.0486C850.355 92.7995 847.079 97.4064 844.744 102.854L846.583 103.642C848.808 98.4495 851.916 94.0884 855.904 90.5434L854.575 89.0486ZM844.754 102.832C842.245 108.32 841.015 115.084 841.015 123.084H843.015C843.015 115.276 844.218 108.816 846.573 103.664L844.754 102.832ZM841.015 123.084C841.015 131.927 843.268 140.014 847.776 147.321L849.478 146.271C845.171 139.29 843.015 131.569 843.015 123.084H841.015ZM847.768 147.308C852.129 154.628 858.433 160.377 866.641 164.559L867.549 162.777C859.646 158.751 853.638 153.252 849.486 146.284L847.768 147.308ZM866.641 164.559C874.866 168.749 884.605 170.824 895.823 170.824V168.824C884.85 168.824 875.436 166.795 867.549 162.777L866.641 164.559ZM895.823 170.824C903.196 170.824 910.27 169.979 917.042 168.286L916.557 166.346C909.953 167.997 903.042 168.824 895.823 168.824V170.824ZM917.047 168.285C923.636 166.599 929.774 164.452 935.457 161.841L934.622 160.023C929.057 162.58 923.034 164.689 916.552 166.347L917.047 168.285ZM935.477 161.831C941.132 159.08 946.186 156.247 950.635 153.332L949.539 151.66C945.173 154.52 940.195 157.312 934.602 160.033L935.477 161.831ZM950.958 152.004L941.154 134.676L939.413 135.66L949.217 152.988L950.958 152.004ZM939.705 134.352C936.102 136.905 931.963 139.389 927.285 141.803L928.202 143.581C932.948 141.131 937.169 138.599 940.861 135.984L939.705 134.352ZM927.308 141.792C922.647 144.047 917.758 145.928 912.641 147.433L913.206 149.351C918.425 147.816 923.416 145.897 928.179 143.592L927.308 141.792ZM912.668 147.425C907.575 148.773 902.645 149.444 897.875 149.444V151.444C902.834 151.444 907.936 150.747 913.179 149.359L912.668 147.425ZM897.875 149.444C892.828 149.444 887.851 148.554 882.941 146.768L882.258 148.648C887.38 150.51 892.587 151.444 897.875 151.444V149.444ZM882.957 146.774C877.935 144.854 873.822 141.984 870.595 138.17L869.068 139.462C872.528 143.551 876.928 146.61 882.242 148.642L882.957 146.774ZM870.595 138.17C867.44 134.442 865.815 129.447 865.815 123.084H863.815C863.815 129.793 865.535 135.286 869.068 139.462L870.595 138.17ZM865.815 123.084C865.815 117.649 867.28 113.253 870.144 109.816L868.607 108.536C865.391 112.395 863.815 117.271 863.815 123.084H865.815ZM870.172 109.781C872.959 106.113 876.717 103.01 881.473 100.483L880.534 98.7169C875.562 101.358 871.567 104.639 868.579 108.571L870.172 109.781ZM881.494 100.472C886.314 97.7598 891.44 95.3478 896.87 93.236L896.145 91.372C890.631 93.5162 885.42 95.9681 880.513 98.7284L881.494 100.472ZM896.865 93.238C902.045 91.2571 907.302 89.1241 912.633 86.8391L911.845 85.0008C906.537 87.2758 901.305 89.3989 896.15 91.3699L896.865 93.238ZM912.655 86.8294C918.035 84.3701 923.034 81.448 927.651 78.0624L926.468 76.4496C921.965 79.752 917.084 82.6058 911.824 85.0105L912.655 86.8294ZM927.668 78.0496C932.338 74.4691 936.078 70.1061 938.881 64.9668L937.125 64.0091C934.457 68.9018 930.901 73.0508 926.451 76.4624L927.668 78.0496ZM938.881 64.9668C941.715 59.7716 943.107 53.5181 943.107 46.248H941.107C941.107 53.2658 939.764 59.1723 937.125 64.0091L938.881 64.9668ZM943.107 46.248C943.107 37.4201 941.014 29.7025 936.793 23.1352L935.11 24.2167C939.096 30.4175 941.107 37.7478 941.107 46.248H943.107ZM936.789 23.1303C932.432 16.4384 926.518 11.2292 919.071 7.50553L918.176 9.29439C925.321 12.8667 930.959 17.8415 935.113 24.2216L936.789 23.1303ZM919.085 7.51305C911.638 3.63432 903.128 1.55261 893.576 1.24448L893.511 3.24344C902.807 3.54332 911.017 5.56561 918.161 9.28688L919.085 7.51305ZM893.543 1.24396C882.825 1.24396 873.37 2.54514 865.194 5.16775L865.805 7.07218C873.74 4.52678 882.982 3.24396 893.543 3.24396V1.24396ZM865.199 5.16611C856.927 7.77022 849.631 10.9933 843.319 14.8422L844.36 16.5498C850.512 12.7986 857.656 9.63771 865.8 7.07381L865.199 5.16611ZM842.945 16.1432L851.381 33.0152L853.17 32.1207L844.734 15.2487L842.945 16.1432ZM767.588 2.15596H658.148V4.15596H767.588V2.15596ZM657.148 3.15596V24.36H659.148V3.15596H657.148ZM658.148 25.36H702.38V23.36H658.148V25.36ZM701.38 24.36V168H703.38V24.36H701.38ZM702.38 169H724.496V167H702.38V169ZM725.496 168V24.36H723.496V168H725.496ZM724.496 25.36H767.588V23.36H724.496V25.36ZM768.588 24.36V3.15596H766.588V24.36H768.588ZM584.943 85.692C584.943 74.1641 582.79 63.3146 578.479 53.1534L576.638 53.9345C580.839 63.8373 582.943 74.4199 582.943 85.692H584.943ZM578.476 53.1467C574.019 42.8486 567.868 33.7751 560.026 25.9329L558.611 27.3471C566.273 35.0089 572.282 43.8714 576.641 53.9412L578.476 53.1467ZM560.032 25.9398C552.192 17.9457 543.195 11.7162 533.045 7.25644L532.24 9.08748C542.154 13.4437 550.941 19.5262 558.605 27.3402L560.032 25.9398ZM533.051 7.25928C522.732 2.63892 511.648 0.33197 499.811 0.33197V2.33197C511.381 2.33197 522.185 4.58502 532.234 9.08465L533.051 7.25928ZM499.811 0.33197C488.123 0.33197 477.189 2.63968 467.021 7.2616L467.848 9.08233C477.744 4.58425 488.394 2.33197 499.811 2.33197V0.33197ZM467.037 7.25424C456.735 11.7135 447.659 17.9432 439.817 25.9398L441.244 27.3402C448.906 19.5287 457.766 13.4465 467.832 9.08969L467.037 7.25424ZM439.83 25.926C431.834 33.7688 425.604 42.8444 421.145 53.1467L422.98 53.9412C427.337 43.8755 433.419 35.0152 441.231 27.3539L439.83 25.926ZM421.147 53.1417C416.681 63.3056 414.451 74.1592 414.451 85.692H416.451C416.451 74.4247 418.628 63.8463 422.978 53.9462L421.147 53.1417ZM414.451 85.692C414.451 97.525 416.68 108.605 421.145 118.921L422.98 118.127C418.629 108.075 416.451 97.2669 416.451 85.692H414.451ZM421.145 118.921C425.604 129.224 431.834 138.299 439.83 146.142L441.231 144.714C433.419 137.053 427.337 128.192 422.98 118.127L421.145 118.921ZM439.83 146.142C447.672 153.83 456.743 159.902 467.037 164.358L467.832 162.522C457.758 158.162 448.893 152.226 441.231 144.714L439.83 146.142ZM467.044 164.361C477.207 168.672 488.133 170.824 499.811 170.824V168.824C488.385 168.824 477.726 166.72 467.825 162.519L467.044 164.361ZM499.811 170.824C511.639 170.824 522.715 168.673 533.028 164.363L532.257 162.517C522.202 166.719 511.39 168.824 499.811 168.824V170.824ZM533.033 164.361C543.18 160.056 552.177 154.058 560.019 146.37L558.618 144.942C550.956 152.454 542.169 158.312 532.252 162.519L533.033 164.361ZM560.019 146.37C567.865 138.677 574.018 129.677 578.476 119.377L576.641 118.583C572.283 128.651 566.276 137.434 558.618 144.942L560.019 146.37ZM578.481 119.366C582.793 109.049 584.943 97.8206 584.943 85.692H582.943C582.943 97.5793 580.836 108.543 576.636 118.594L578.481 119.366ZM560.143 85.92C560.143 94.4579 558.57 102.458 555.433 109.929L557.277 110.703C560.523 102.974 562.143 94.71 562.143 85.92H560.143ZM555.435 109.922C552.292 117.258 547.952 123.767 542.414 129.454L543.847 130.85C549.557 124.985 554.034 118.27 557.274 110.71L555.435 109.922ZM542.414 129.454C536.879 135.139 530.448 139.627 523.113 142.92L523.932 144.744C531.494 141.349 538.134 136.717 543.847 130.85L542.414 129.454ZM523.129 142.913C515.814 146.048 507.893 147.62 499.355 147.62V149.62C508.144 149.62 516.336 148 523.916 144.751L523.129 142.913ZM499.355 147.62C490.971 147.62 483.126 146.049 475.808 142.913L475.021 144.751C482.599 147.999 490.714 149.62 499.355 149.62V147.62ZM475.824 142.92C468.492 139.628 462.14 135.143 456.76 129.464L455.309 130.84C460.873 136.713 467.441 141.348 475.005 144.744L475.824 142.92ZM456.76 129.464C451.371 123.776 447.104 117.264 443.958 109.922L442.119 110.71C445.357 118.264 449.754 124.976 455.309 130.84L456.76 129.464ZM443.961 109.929C440.824 102.46 439.251 94.3843 439.251 85.692H437.251C437.251 94.6316 438.87 102.972 442.117 110.703L443.961 109.929ZM439.251 85.692C439.251 77.154 440.823 69.1544 443.961 61.6832L442.117 60.9087C438.87 68.6376 437.251 76.9019 437.251 85.692H439.251ZM443.963 61.6767C447.109 54.0379 451.448 47.3826 456.979 41.7016L455.546 40.3063C449.83 46.1774 445.352 53.0501 442.114 60.9152L443.963 61.6767ZM456.979 41.7016C462.511 36.0204 468.937 31.6115 476.264 28.4711L475.477 26.6328C467.908 29.8764 461.262 34.4355 455.546 40.3063L456.979 41.7016ZM476.28 28.4642C483.594 25.1805 491.434 23.536 499.811 23.536V21.536C491.164 21.536 483.043 23.2354 475.461 26.6397L476.28 28.4642ZM499.811 23.536C508.342 23.536 516.258 25.1816 523.569 28.4642L524.388 26.6397C516.804 23.2344 508.607 21.536 499.811 21.536V23.536ZM523.569 28.4642C530.904 31.7573 537.335 36.245 542.87 41.9296L544.303 40.5343C538.59 34.6669 531.95 30.0346 524.388 26.6397L523.569 28.4642ZM542.87 41.9296C548.398 47.607 552.659 54.2569 555.652 61.8891L557.513 61.1589C554.426 53.287 550.023 46.409 544.303 40.5343L542.87 41.9296ZM555.654 61.8954C558.644 69.3704 560.143 77.3757 560.143 85.92H562.143C562.143 77.1363 560.601 68.8775 557.511 61.1526L555.654 61.8954ZM285.074 2.15596C276.623 2.15596 268.84 3.30847 261.736 5.62524L262.356 7.5267C269.235 5.28346 276.805 4.15596 285.074 4.15596V2.15596ZM261.76 5.61758C254.496 7.78147 248.213 11.1122 242.929 15.6191L244.227 17.1408C249.279 12.8317 255.308 9.62647 262.331 7.53436L261.76 5.61758ZM242.953 15.5991C237.506 19.9565 233.306 25.4043 230.355 31.9278L232.177 32.7521C235.002 26.5077 239.009 21.3154 244.202 17.1608L242.953 15.5991ZM230.367 31.9015C227.248 38.2953 225.706 45.7469 225.706 54.228H227.706C227.706 45.9891 229.203 38.8486 232.164 32.7784L230.367 31.9015ZM225.706 54.228C225.706 60.8665 226.709 67.3525 228.716 73.6822L230.623 73.0777C228.678 66.9434 227.706 60.6614 227.706 54.228H225.706ZM228.71 73.6609C230.575 80.0344 233.762 85.8587 238.257 91.1289L239.779 89.831C235.458 84.7653 232.412 79.1895 230.629 73.0991L228.71 73.6609ZM238.267 91.1401C242.784 96.2811 248.685 100.464 255.938 103.705L256.754 101.879C249.719 98.7356 244.067 94.7109 239.769 89.8199L238.267 91.1401ZM255.947 103.709C263.101 106.819 271.91 108.352 282.338 108.352V106.352C272.093 106.352 263.574 104.844 256.744 101.875L255.947 103.709ZM282.338 108.352H306.734V106.352H282.338V108.352ZM305.734 107.352V168H307.734V107.352H305.734ZM306.734 169H328.85V167H306.734V169ZM329.85 168V3.15596H327.85V168H329.85ZM328.85 2.15596H285.074V4.15596H328.85V2.15596ZM282.794 85.148C276.35 85.148 271.11 84.1726 267.027 82.277L266.185 84.091C270.614 86.1474 276.166 87.148 282.794 87.148V85.148ZM267.015 82.2715C262.718 80.3451 259.438 77.9248 257.127 75.0353L255.565 76.2847C258.117 79.4751 261.678 82.0708 266.197 84.0965L267.015 82.2715ZM257.141 75.0539C254.779 71.954 253.089 68.6436 252.062 65.12L250.142 65.68C251.242 69.4523 253.048 72.9819 255.55 76.266L257.141 75.0539ZM252.062 65.12C251.019 61.5462 250.506 58.2212 250.506 55.14H248.506C248.506 58.4427 249.056 61.9578 250.142 65.68L252.062 65.12ZM250.506 55.14C250.506 51.9191 251.091 48.6101 252.274 45.2085L250.385 44.5514C249.136 48.1419 248.506 51.6728 248.506 55.14H250.506ZM252.29 45.16C253.312 41.6538 255.066 38.4338 257.564 35.4956L256.04 34.2003C253.369 37.3421 251.475 40.8101 250.37 44.6L252.29 45.16ZM257.583 35.4727C259.906 32.5679 263.048 30.147 267.04 28.225L266.172 26.423C261.956 28.4529 258.561 31.0481 256.021 34.2233L257.583 35.4727ZM267.053 28.2184C270.83 26.3298 275.531 25.36 281.198 25.36V23.36C275.312 23.36 270.285 24.3661 266.158 26.4295L267.053 28.2184ZM281.198 25.36H306.734V23.36H281.198V25.36ZM305.734 24.36V86.148H307.734V24.36H305.734ZM306.734 85.148H282.794V87.148H306.734V85.148ZM255.515 102.235L211.739 167.443L213.4 168.557L257.176 103.349L255.515 102.235ZM212.57 169H238.106V167H212.57V169ZM238.955 168.529L276.849 107.676L275.151 106.619L237.257 167.471L238.955 168.529ZM276.216 106.171L256.562 101.816L256.129 103.768L275.784 108.124L276.216 106.171ZM86.3141 113.538L147.418 3.64191L145.67 2.67001L84.5661 112.566L86.3141 113.538ZM146.544 2.15596H119.412V4.15596H146.544V2.15596ZM118.532 2.6816L72.8138 87.5256L74.5745 88.4744L120.292 3.63032L118.532 2.6816ZM74.5775 87.5312L29.5514 2.68719L27.7848 3.62473L72.8108 88.4688L74.5775 87.5312ZM28.6681 2.15596H1.7641V4.15596H28.6681V2.15596ZM0.891655 3.64467L62.4517 113.541L64.1966 112.563L2.63654 2.66725L0.891655 3.64467ZM62.3241 113.052V168H64.3241V113.052H62.3241ZM63.3241 169H85.4401V167H63.3241V169ZM86.4401 168V113.052H84.4401V168H86.4401Z" fill="#EF8B5D" mask="url(#path-1-outside-1_24_206)"/>
</svg>
